<svg width="16" height="16" viewBox="0 0 16 16" fill="none" xmlns="http://www.w3.org/2000/svg">
<rect x="4" y="4" width="8" height="8" fill="#05FF00"/>
<path d="M11.6926 0H11.6542C10.1273 0 8.777 0.840201 8.00025 2.08002C7.22351 0.840201 5.87317 0 4.34629 0H4.30791C3.16203 0.0113557 2.06675 0.492521 1.26011 1.33893C0.453458 2.18534 0.000622047 3.32861 0 4.52027C0 6.00007 0.623237 8.09977 1.8385 9.82753C4.15389 13.1197 8.00025 16 8.00025 16C8.00025 16 11.8466 13.1202 14.1615 9.82753C15.3773 8.09977 16 6.00007 16 4.52027C15.9994 3.3287 15.5466 2.18552 14.7401 1.33912C13.9335 0.492722 12.8384 0.011495 11.6926 0ZM11.1436 10.0808C10.9697 10.0801 10.8 10.0248 10.6569 9.92202C10.5138 9.81927 10.404 9.67393 10.3417 9.50507H9.42889C9.36878 9.50468 9.31028 9.48478 9.26157 9.44815C9.21286 9.41152 9.17637 9.35999 9.15718 9.30074L8.87678 8.42223L7.98951 11.6463C7.97223 11.7083 7.93606 11.7629 7.88642 11.8018C7.83678 11.8406 7.77635 11.8617 7.71422 11.8618H7.69631C7.63148 11.8585 7.56969 11.8322 7.52126 11.7873C7.47283 11.7424 7.4407 11.6815 7.43023 11.6149L6.51584 5.89577L5.84758 9.27999C5.83226 9.34428 5.79667 9.40138 5.74649 9.44217C5.69632 9.48297 5.63445 9.50511 5.57076 9.50507H4.28488C4.24634 9.50677 4.20786 9.50034 4.17176 9.48617C4.13567 9.472 4.1027 9.45038 4.07485 9.42262C4.047 9.39485 4.02484 9.36152 4.0097 9.32462C3.99456 9.28772 3.98675 9.24801 3.98675 9.20789C3.98675 9.16777 3.99456 9.12806 4.0097 9.09116C4.02484 9.05426 4.047 9.02092 4.07485 8.99316C4.1027 8.9654 4.13567 8.94378 4.17176 8.92961C4.20786 8.91544 4.24634 8.90901 4.28488 8.91071H5.34561L6.29224 4.36064C6.30778 4.29337 6.3453 4.2338 6.3984 4.19211C6.4515 4.15043 6.51688 4.12922 6.58335 4.13211C6.64982 4.135 6.71326 4.16181 6.76283 4.20796C6.8124 4.25411 6.84501 4.31673 6.85509 4.38511L7.78893 10.2192L8.58409 7.3346C8.60065 7.27385 8.63565 7.22029 8.68389 7.18193C8.73212 7.14357 8.79099 7.12246 8.85171 7.12175H8.85733C8.91747 7.12177 8.97606 7.14154 9.02476 7.17823C9.07346 7.21492 9.10978 7.26666 9.12853 7.32608C9.32656 7.94554 9.43758 8.29285 9.63561 8.9123H10.3305C10.3799 8.75621 10.4698 8.61736 10.5903 8.51105C10.7108 8.40475 10.8572 8.33514 11.0134 8.3099C11.1695 8.28465 11.3293 8.30477 11.4752 8.36801C11.621 8.43126 11.7472 8.53518 11.8398 8.66831C11.9325 8.80143 11.988 8.95859 12.0001 9.12242C12.0123 9.28626 11.9807 9.45041 11.9088 9.59675C11.837 9.7431 11.7276 9.86595 11.5928 9.95174C11.4581 10.0375 11.3031 10.0829 11.1451 10.0829L11.1436 10.0808Z" fill="url(#paint0_linear_114_2299)"/>
<defs>
<linearGradient id="paint0_linear_114_2299" x1="8" y1="0" x2="8" y2="16" gradientUnits="userSpaceOnUse">
<stop stop-color="#0583F2"/>
<stop offset="1" stop-color="#056CF2"/>
</linearGradient>
</defs>
</svg>
