<svg width="123" height="36" viewBox="0 0 123 36" fill="none" xmlns="http://www.w3.org/2000/svg">
<path d="M26.3083 0H26.222C22.7865 0 19.7482 1.89045 18.0006 4.68004C16.2529 1.89045 13.2146 0 9.77914 0H9.69279C7.11456 0.0255503 4.65019 1.10817 2.83524 3.0126C1.02028 4.91703 0.00139961 7.48936 0 10.1706C0 13.5001 1.40228 18.2245 4.13662 22.1119C9.34625 29.5193 18.0006 36 18.0006 36C18.0006 36 26.6549 29.5205 31.8634 22.1119C34.5989 18.2245 36 13.5001 36 10.1706C35.9986 7.48957 34.9799 4.91741 33.1652 3.01302C31.3505 1.10862 28.8864 0.0258638 26.3083 0ZM25.073 22.6818C24.6817 22.6803 24.3001 22.5557 23.9781 22.3246C23.6562 22.0934 23.4089 21.7663 23.2689 21.3864H21.215C21.0797 21.3855 20.9481 21.3408 20.8385 21.2583C20.7289 21.1759 20.6468 21.06 20.6037 20.9267L19.9727 18.95L17.9764 26.2041C17.9375 26.3438 17.8561 26.4665 17.7444 26.554C17.6327 26.6414 17.4968 26.6888 17.357 26.689H17.3167C17.1708 26.6817 17.0318 26.6225 16.9228 26.5214C16.8139 26.4203 16.7416 26.2834 16.718 26.1335L14.6607 13.2655L13.1571 20.88C13.1226 21.0246 13.0425 21.1531 12.9296 21.2449C12.8167 21.3367 12.6775 21.3865 12.5342 21.3864H9.64098C9.55426 21.3902 9.46768 21.3758 9.38647 21.3439C9.30525 21.312 9.23108 21.2634 9.16841 21.2009C9.10575 21.1384 9.05588 21.0634 9.02182 20.9804C8.98775 20.8974 8.97019 20.808 8.97019 20.7177C8.97019 20.6275 8.98775 20.5381 9.02182 20.4551C9.05588 20.3721 9.10575 20.2971 9.16841 20.2346C9.23108 20.1721 9.30525 20.1235 9.38647 20.0916C9.46768 20.0597 9.55426 20.0453 9.64098 20.0491H12.0276L14.1575 9.81143C14.1925 9.66007 14.2769 9.52604 14.3964 9.43225C14.5159 9.33846 14.663 9.29074 14.8125 9.29725C14.9621 9.30375 15.1048 9.36408 15.2164 9.46791C15.3279 9.57174 15.4013 9.71264 15.424 9.86651L17.5251 22.9931L19.3142 16.5028C19.3515 16.3662 19.4302 16.2457 19.5387 16.1593C19.6473 16.073 19.7797 16.0255 19.9163 16.0239H19.929C20.0643 16.024 20.1961 16.0685 20.3057 16.151C20.4153 16.2336 20.497 16.35 20.5392 16.4837C20.9848 17.8775 21.2346 18.6589 21.6801 20.0527H23.2436C23.3547 19.7015 23.5571 19.3891 23.8282 19.1499C24.0993 18.9107 24.4287 18.7541 24.78 18.6973C25.1314 18.6405 25.4909 18.6857 25.8191 18.828C26.1473 18.9703 26.4312 19.2042 26.6397 19.5037C26.8481 19.8032 26.9729 20.1568 27.0003 20.5254C27.0277 20.8941 26.9566 21.2634 26.7949 21.5927C26.6332 21.922 26.3871 22.1984 26.0839 22.3914C25.7806 22.5845 25.432 22.6866 25.0765 22.6866L25.073 22.6818Z" fill="url(#paint0_linear_102_2326)"/>
<path d="M48.46 20.22V26H45.34V12.1H54.14V14.08H48.46V18.24H53.16V20.22H48.46ZM59.0189 11.5V26H56.0989V11.5H59.0189ZM66.35 26.2C65.6033 26.2 64.9033 26.0867 64.25 25.86C63.5967 25.62 63.03 25.28 62.55 24.84C62.07 24.3867 61.69 23.8333 61.41 23.18C61.13 22.5267 60.99 21.7733 60.99 20.92C60.99 20.0667 61.13 19.3133 61.41 18.66C61.69 18.0067 62.07 17.46 62.55 17.02C63.03 16.5667 63.5967 16.2267 64.25 16C64.9033 15.7733 65.6033 15.66 66.35 15.66C67.0967 15.66 67.7967 15.7733 68.45 16C69.1167 16.2267 69.69 16.5667 70.17 17.02C70.6633 17.46 71.05 18.0067 71.33 18.66C71.61 19.3133 71.75 20.0667 71.75 20.92C71.75 21.7733 71.61 22.5267 71.33 23.18C71.05 23.8333 70.6633 24.3867 70.17 24.84C69.69 25.28 69.1233 25.62 68.47 25.86C67.8167 26.0867 67.11 26.2 66.35 26.2ZM66.35 24.3C67.0433 24.3 67.6167 24.0467 68.07 23.54C68.5367 23.02 68.77 22.1467 68.77 20.92C68.77 19.7067 68.5367 18.8467 68.07 18.34C67.6167 17.82 67.0433 17.56 66.35 17.56C66.0033 17.56 65.6833 17.62 65.39 17.74C65.11 17.86 64.8633 18.0533 64.65 18.32C64.4367 18.5867 64.27 18.9333 64.15 19.36C64.03 19.7867 63.97 20.3067 63.97 20.92C63.97 21.5333 64.03 22.0533 64.15 22.48C64.27 22.9067 64.4367 23.26 64.65 23.54C64.8633 23.8067 65.11 24 65.39 24.12C65.6833 24.24 66.0033 24.3 66.35 24.3ZM76.6361 26H73.7161V15.86H76.3361L76.5561 17.32H76.5961C76.8761 16.8533 77.2761 16.46 77.7961 16.14C78.3294 15.82 78.9961 15.66 79.7961 15.66C80.5561 15.66 81.1894 15.82 81.6961 16.14C82.2161 16.46 82.5894 16.9467 82.8161 17.6C83.1628 16.9467 83.6228 16.46 84.1961 16.14C84.7828 15.82 85.4561 15.66 86.2161 15.66C87.1894 15.66 87.9761 15.9333 88.5761 16.48C89.1761 17.0267 89.4761 17.86 89.4761 18.98V26H86.5361V19.3C86.5361 18.7533 86.4094 18.36 86.1561 18.12C85.9028 17.8667 85.5628 17.74 85.1361 17.74C84.6294 17.74 84.2094 17.8733 83.8761 18.14C83.5561 18.4067 83.2828 18.7467 83.0561 19.16V26H80.1361V19.2C80.1361 18.64 80.0028 18.26 79.7361 18.06C79.4828 17.8467 79.1428 17.74 78.7161 17.74C78.1961 17.74 77.7761 17.8733 77.4561 18.14C77.1361 18.3933 76.8628 18.7333 76.6361 19.16V26ZM96.2825 17.38C95.7358 17.38 95.2825 17.5933 94.9225 18.02C94.5758 18.4333 94.3492 19.0467 94.2425 19.86H98.0025C98.0292 19.0067 97.8825 18.38 97.5625 17.98C97.2558 17.58 96.8292 17.38 96.2825 17.38ZM100.543 25.18C100.236 25.4067 99.7692 25.6333 99.1425 25.86C98.5158 26.0867 97.7492 26.2 96.8425 26.2C95.9225 26.2 95.1158 26.08 94.4225 25.84C93.7292 25.5867 93.1492 25.2333 92.6825 24.78C92.2292 24.3133 91.8825 23.7533 91.6425 23.1C91.4158 22.4467 91.3025 21.72 91.3025 20.92C91.3025 20.1067 91.4225 19.38 91.6625 18.74C91.9025 18.0867 92.2425 17.5333 92.6825 17.08C93.1225 16.6267 93.6425 16.28 94.2425 16.04C94.8558 15.7867 95.5358 15.66 96.2825 15.66C97.0292 15.66 97.7025 15.78 98.3025 16.02C98.9025 16.26 99.3958 16.62 99.7825 17.1C100.183 17.58 100.456 18.18 100.603 18.9C100.763 19.62 100.763 20.4533 100.603 21.4H94.2025C94.2958 22.36 94.5892 23.0733 95.0825 23.54C95.5892 23.9933 96.2825 24.22 97.1625 24.22C97.7225 24.22 98.2358 24.14 98.7025 23.98C99.1825 23.82 99.6092 23.6267 99.9825 23.4L100.543 25.18ZM107.541 24.3C108.208 24.3 108.768 24.0267 109.221 23.48C109.688 22.92 109.921 22.0667 109.921 20.92C109.921 19.7867 109.694 18.9467 109.241 18.4C108.788 17.84 108.221 17.56 107.541 17.56C106.848 17.56 106.281 17.84 105.841 18.4C105.401 18.9467 105.181 19.7867 105.181 20.92C105.181 22.0533 105.401 22.9 105.841 23.46C106.281 24.02 106.848 24.3 107.541 24.3ZM110.041 24.18C109.734 24.78 109.308 25.2667 108.761 25.64C108.214 26.0133 107.521 26.2 106.681 26.2C106.081 26.2 105.508 26.0933 104.961 25.88C104.414 25.6667 103.934 25.34 103.521 24.9C103.121 24.46 102.801 23.9133 102.561 23.26C102.321 22.5933 102.201 21.8133 102.201 20.92C102.201 20.0267 102.321 19.2533 102.561 18.6C102.801 17.9333 103.121 17.3867 103.521 16.96C103.934 16.52 104.414 16.1933 104.961 15.98C105.508 15.7667 106.088 15.66 106.701 15.66C107.421 15.66 108.048 15.8067 108.581 16.1C109.114 16.38 109.554 16.78 109.901 17.3V11.5H112.821V26H110.261L110.041 24.18Z" fill="#121212"/>
<defs>
<linearGradient id="paint0_linear_102_2326" x1="18" y1="0" x2="18" y2="36" gradientUnits="userSpaceOnUse">
<stop stop-color="#0583F2"/>
<stop offset="1" stop-color="#056CF2"/>
</linearGradient>
</defs>
</svg>
