<svg width="36" height="36" viewBox="0 0 36 36" fill="none" xmlns="http://www.w3.org/2000/svg">
<path d="M26.3083 0H26.222C22.7865 0 19.7482 1.89045 18.0006 4.68004C16.2529 1.89045 13.2146 0 9.77914 0H9.69279C7.11456 0.0255503 4.65019 1.10817 2.83524 3.0126C1.02028 4.91703 0.00139961 7.48936 0 10.1706C0 13.5001 1.40228 18.2245 4.13662 22.1119C9.34625 29.5193 18.0006 36 18.0006 36C18.0006 36 26.6549 29.5205 31.8634 22.1119C34.5989 18.2245 36 13.5001 36 10.1706C35.9986 7.48957 34.9799 4.91741 33.1652 3.01302C31.3505 1.10862 28.8864 0.0258638 26.3083 0ZM25.073 22.6818C24.6817 22.6803 24.3001 22.5557 23.9781 22.3246C23.6562 22.0934 23.4089 21.7663 23.2689 21.3864H21.215C21.0797 21.3855 20.9481 21.3408 20.8385 21.2583C20.7289 21.1759 20.6468 21.06 20.6037 20.9267L19.9727 18.95L17.9764 26.2041C17.9375 26.3438 17.8561 26.4665 17.7444 26.554C17.6328 26.6414 17.4968 26.6888 17.357 26.689H17.3167C17.1708 26.6817 17.0318 26.6225 16.9228 26.5214C16.8139 26.4203 16.7416 26.2834 16.718 26.1335L14.6607 13.2655L13.1571 20.88C13.1226 21.0246 13.0425 21.1531 12.9296 21.2449C12.8167 21.3367 12.6775 21.3865 12.5342 21.3864H9.64098C9.55426 21.3902 9.46768 21.3758 9.38647 21.3439C9.30526 21.312 9.23108 21.2634 9.16841 21.2009C9.10575 21.1384 9.05588 21.0634 9.02182 20.9804C8.98775 20.8974 8.97019 20.808 8.97019 20.7177C8.97019 20.6275 8.98775 20.5381 9.02182 20.4551C9.05588 20.3721 9.10575 20.2971 9.16841 20.2346C9.23108 20.1721 9.30526 20.1235 9.38647 20.0916C9.46768 20.0597 9.55426 20.0453 9.64098 20.0491H12.0276L14.1575 9.81143C14.1925 9.66007 14.2769 9.52604 14.3964 9.43225C14.5159 9.33846 14.663 9.29074 14.8125 9.29725C14.9621 9.30375 15.1048 9.36408 15.2164 9.46791C15.3279 9.57174 15.4013 9.71264 15.424 9.86651L17.5251 22.9931L19.3142 16.5028C19.3515 16.3662 19.4302 16.2457 19.5387 16.1593C19.6473 16.073 19.7797 16.0255 19.9163 16.0239H19.929C20.0643 16.024 20.1961 16.0685 20.3057 16.151C20.4153 16.2336 20.497 16.35 20.5392 16.4837C20.9848 17.8775 21.2346 18.6589 21.6801 20.0527H23.2436C23.3548 19.7015 23.5571 19.3891 23.8282 19.1499C24.0993 18.9107 24.4287 18.7541 24.78 18.6973C25.1314 18.6405 25.4909 18.6857 25.8191 18.828C26.1473 18.9703 26.4312 19.2042 26.6397 19.5037C26.8481 19.8032 26.9729 20.1568 27.0003 20.5255C27.0277 20.8941 26.9566 21.2634 26.7949 21.5927C26.6332 21.922 26.3871 22.1984 26.0839 22.3914C25.7806 22.5845 25.432 22.6866 25.0765 22.6866L25.073 22.6818Z" fill="url(#paint0_linear_103_2284)"/>
<defs>
<linearGradient id="paint0_linear_103_2284" x1="18" y1="0" x2="18" y2="36" gradientUnits="userSpaceOnUse">
<stop stop-color="#0583F2"/>
<stop offset="1" stop-color="#056CF2"/>
</linearGradient>
</defs>
</svg>
